{"title":"Doug Stanhope - Edinburgh Bootleg (2006) {ipod, psp, mp4, androi","uid":7547633,"size":108623163,"categoryP":"video","categoryS":"handheld","magnet":"?xt=urn:btih:ffd5d0cb52af4dfefe78904430a38030c9d39190&amp;dn=Doug+Stanhope+-+Edinburgh+Bootleg+%282006%29+%7Bipod%2C+psp%2C+mp4%2C+androi&amp;tr=udp%3A%2F%2Ftracker.openbittorrent.com%3A80&amp;tr=udp%3A%2F%2Fopen.demonii.com%3A1337&amp;tr=udp%3A%2F%2Ftracker.coppersurfer.tk%3A6969&amp;tr=udp%3A%2F%2Fexodus.desync.com%3A6969","seeders":0,"leechers":0,"uploader":"cokekoala","files":1,"time":1345397844,"description":"Source: &lt;a href=&quot;\nhttp://thepiratebay.se/torrent/5654630/Doug_Stanhope_-_Edinburgh_Bootleg_DVDRip&quot; rel=&quot;nofollow&quot; target=&quot;_NEW&quot;&gt;\nhttp://thepiratebay.se/torrent/5654630/Doug_Stanhope_-_Edinburgh_Bootleg_DVDRip&lt;/a&gt;\n\nFixed the aspect ratio to 4:3 (the source was wrongly set to 16:9), a couple seconds of trimming, and encoded to baseline mp4 for all to enjoy on the go.\n\nMaximum compatibility with all devices, please do enjoy this small file of stanhope bile.\n\n\nFormat                                   : MPEG-4\nFormat profile                           : Base Media\nCodec ID                                 : isom\nFile size                                : 104 MiB\nDuration                                 : 47mn 48s\nOverall bit rate                         : 303 Kbps\nWriting application                      : Lavf54.6.100\n\nVideo\nID                                       : 1\nFormat                                   : AVC\nFormat/Info                              : Advanced Video Codec\nFormat profile                           : &lt;a class=&quot;__cf_email__&quot; href=&quot;/cdn-cgi/l/email-protection&quot; data-cfemail=&quot;b5f7d4c6d0d9dcdbd0f5f9849b86&quot;&gt;[email&amp;#160;protected]&lt;/a&gt;&lt;script data-cfhash='f9e31' type=&quot;text/javascript&quot;&gt;\n/* &lt;![CDATA[ */!function(){try{var t=&quot;currentScript&quot;in document?document.currentScript:function(){for(var t=document.getElementsByTagName(&quot;script&quot;),e=t.length;e--;)if(t[e].getAttribute(&quot;data-cfhash&quot;))return t[e]}();if(t&amp;&amp;t.previousSibling){var e,r,n,i,c=t.previousSibling,a=c.getAttribute(&quot;data-cfemail&quot;);if(a){for(e=&quot;&quot;,r=parseInt(a.substr(0,2),16),n=2;a.length-n;n+=2)i=parseInt(a.substr(n,2),16)^r,e+=String.fromCharCode(i);e=document.createTextNode(e),c.parentNode.replaceChild(e,c)}t.parentNode.removeChild(t);}}catch(u){}}()/* ]]&gt; */&lt;/script&gt;\nFormat settings, CABAC                   : No\nFormat settings, ReFrames                : 2 frames\nCodec ID                                 : avc1\nCodec ID/Info                            : Advanced Video Coding\nDuration                                 : 47mn 48s\nBit rate                                 : 200 Kbps\nWidth                                    : 320 pixels\nHeight                                   : 240 pixels\nDisplay aspect ratio                     : 4:3\nFrame rate mode                          : Constant\nFrame rate                               : 24.914 fps\nColor space                              : YUV\nChroma subsampling                       : 4:2:0\nBit depth                                : 8 bits\nScan type                                : Progressive\nBits/(Pixel*Frame)                       : 0.105\nStream size                              : 68.6 MiB (66%)\nLanguage                                 : English\n\nAudio\nID                                       : 2\nFormat                                   : AAC\nFormat/Info                              : Advanced Audio Codec\nFormat profile                           : LC\nCodec ID                                 : 40\nDuration                                 : 47mn 48s\nBit rate mode                            : Constant\nBit rate                                 : 96.0 Kbps\nChannel(s)                               : 2 channels\nChannel positions                        : Front: L R\nSampling rate                            : 48.0 KHz\nCompression mode                         : Lossy\nStream size                              : 32.8 MiB (32%)\n","torrent":{"xt":"urn:btih:ffd5d0cb52af4dfefe78904430a38030c9d39190","amp;dn":"Doug+Stanhope+-+Edinburgh+Bootleg+%282006%29+%7Bipod%2C+psp%2C+mp4%2C+androi","amp;tr":["udp%3A%2F%2Ftracker.openbittorrent.com%3A80","udp%3A%2F%2Fopen.demonii.com%3A1337","udp%3A%2F%2Ftracker.coppersurfer.tk%3A6969","udp%3A%2F%2Fexodus.desync.com%3A6969"],"infoHash":"ffd5d0cb52af4dfefe78904430a38030c9d39190","infoHashBuffer":{"type":"Buffer","data":[255,213,208,203,82,175,77,254,254,120,144,68,48,163,128,48,201,211,145,144]},"announce":[],"urlList":[]}}